<svg xmlns="http://www.w3.org/2000/svg" width="56mm" height="12mm" viewBox="0 0 56 12"><g aria-label="如月.飛羽" style="line-height:1.25" font-weight="400" font-size="12.7" font-family="JKゴシックL" letter-spacing="0" word-spacing="0" stroke-width=".265"><path d="M6.734 10.202h3.721V2.14h-3.72zm-5.63-2.816q-.112.335-.285.757L.335 7.77q.781-1.985 1.24-4.329h-1.5V2.91h1.6q.21-1.129.334-2.195l.583.05q-.149 1.24-.322 2.145h3.15q0 3.15-1.625 5.742.943.794 1.96 1.935l-.422.397q-.992-1.091-1.86-1.848Q2.208 10.921.335 12L0 11.529q1.774-1.017 3.014-2.79-.906-.745-1.91-1.353zm.198-.558q1.116.695 2.022 1.426Q4.7 6.034 4.812 3.442H2.17q-.36 1.873-.868 3.386zm9.748-5.234v9.972h-.595v-.831h-3.72v.83h-.583v-9.97zM15.342 4.62v1.328q0 .744-.05 1.29h6.797V4.62zm0-.52h6.747V1.706h-6.747zm-.608-2.927h7.962v9.165q0 .905-.223 1.116-.223.224-1.104.224-.248 0-1.922-.062l-.013-.546q1.315.05 1.848.05.583 0 .695-.1.112-.099.112-.682V7.771h-6.847q-.322 2.443-1.947 4.043l-.459-.372q1.042-1.054 1.464-2.32.434-1.277.434-3.36zM26.057 10.921V9.358h.72v1.563zM39.44 4.93l.533.137q-.236 1.278-.806 1.451l.322.372q-.769.658-1.7 1.104l-.284-.459q.818-.397 1.575-1.004-.013 0-.037.012h-.025q-.831 0-1.724-1.364-.893-1.365-1.017-3.41h-7.032v-.534h7.59q0 1.03.248 1.96.248.917.595 1.5.348.57.695.918.36.335.608.335.26 0 .458-1.017zM37.33 2.575q.955-.595 1.761-1.476l.385.385q-.831.93-1.811 1.525zm.136 1.067l.249-.471q1.227.57 2.108 1.153l-.273.446q-.868-.558-2.084-1.128zm2.146 6.114l.533.149q-.272 1.823-1.004 1.823-.893 0-1.761-1.439-.856-1.45-.968-3.968h-2.021v5.37h-.596V6.32h-2.282q-.136 2.207-.645 3.423-.496 1.203-1.6 2.021l-.372-.483q.633-.472 1.017-1.005.385-.546.645-1.513.26-.98.348-2.443H28.76v-.534h2.183q.025-.83.025-1.339v-.72q-.732.273-1.848.497l-.162-.521q2.444-.509 4.031-1.662l.31.446q-.769.583-1.736 1.005v.905q0 .534-.025 1.39h2.257V2.263h.596v3.522h2.604q0 1.253.223 2.32.236 1.066.57 1.699.348.62.683.967.347.347.62.347.335 0 .521-1.364zm-1.997-1.128l.248-.484q1.166.508 2.121 1.042l-.285.47q-.819-.47-2.084-1.028zM42.156 3.083l.434-.335q1.165 1.401 2.07 2.828l-.433.31q-.88-1.34-2.071-2.803zm3.41 3.658q-1.438 1.563-3.634 2.803l-.285-.459q2.108-1.203 3.547-2.753zM47.7 2.96l.434-.335q1.253 1.525 2.096 2.828l-.446.31q-.819-1.265-2.084-2.803zm-.496 5.99q2.134-1.203 3.56-2.728l.36.396Q49.67 8.192 47.5 9.42zm-2.096 2.059q.583 0 .695-.1.111-.111.111-.694V1.83h-4.229v-.546h4.825v8.93q0 .893-.223 1.116-.211.224-1.092.224-.236 0-1.86-.062l-.013-.546q1.613.062 1.786.062zm5.581 0q.583 0 .683-.1.111-.111.111-.694V1.83h-4.23v-.546h4.85v8.93q0 .893-.223 1.116-.21.224-1.091.224-.248 0-1.886-.062l-.012-.546q1.625.062 1.798.062z" style="-inkscape-font-specification:JKゴシックL"/></g><path fill="#222" fill-opacity=".267" d="M3.624 8.125h51.717V12H3.624z"/></svg>